<?xml version="1.0" encoding="UTF-8" standalone="no"?>
<svg
   xmlns:dc="http://purl.org/dc/elements/1.1/"
   xmlns:cc="http://creativecommons.org/ns#"
   xmlns:rdf="http://www.w3.org/1999/02/22-rdf-syntax-ns#"
   xmlns:svg="http://www.w3.org/2000/svg"
   xmlns="http://www.w3.org/2000/svg"
   xmlns:sodipodi="http://sodipodi.sourceforge.net/DTD/sodipodi-0.dtd"
   xmlns:inkscape="http://www.inkscape.org/namespaces/inkscape"
   width="128"
   height="128"
   viewBox="0 0 128 128"
   version="1.1"
   id="svg3803"
   sodipodi:docname="icon.svg"
   inkscape:version="0.92.3 (2405546, 2018-03-11)">
  <metadata
     id="metadata3807">
    <rdf:RDF>
      <cc:Work
         rdf:about="">
        <dc:format>image/svg+xml</dc:format>
        <dc:type
           rdf:resource="http://purl.org/dc/dcmitype/StillImage" />
        <dc:title></dc:title>
      </cc:Work>
    </rdf:RDF>
  </metadata>
  <sodipodi:namedview
     pagecolor="#ffffff"
     bordercolor="#666666"
     borderopacity="1"
     objecttolerance="10"
     gridtolerance="10"
     guidetolerance="10"
     inkscape:pageopacity="0"
     inkscape:pageshadow="2"
     inkscape:window-width="1920"
     inkscape:window-height="1017"
     id="namedview3805"
     showgrid="false"
     inkscape:zoom="6.640625"
     inkscape:cx="74.464481"
     inkscape:cy="62.729025"
     inkscape:window-x="-8"
     inkscape:window-y="-8"
     inkscape:window-maximized="1"
     inkscape:current-layer="svg3803" />
  <defs
     id="defs3779">
    <mask
       id="passed-mask">
      <circle
         cx="8"
         cy="8"
         r="7"
         style="fill: white;"
         id="circle3761" />
      <path
         d="M3.5,8 L6.5,11 L12.5,5"
         style="stroke: black; stroke-width: 2; fill: none;"
         id="path3763" />
    </mask>
    <mask
       id="failed-mask">
      <circle
         cx="8"
         cy="8"
         r="7"
         style="fill: white;"
         id="circle3766" />
      <path
         d="M4.5,4.5 L11.5,11.5 M4.5,11.5 L11.5,4.5"
         style="stroke: black; stroke-width: 2px;"
         id="path3768" />
    </mask>
    <mask
       id="running-mask">
      <circle
         cx="8"
         cy="8"
         r="7"
         style="fill: white;"
         id="circle3771" />
      <path
         d="M5,4 L13,8 L5,12 X"
         style="fill: black;"
         id="path3773" />
    </mask>
    <mask
       id="circle">
      <circle
         cx="64"
         cy="64"
         r="64"
         style="fill: white;"
         id="circle3776" />
    </mask>
    <filter
       style="color-interpolation-filters:sRGB;"
       height="1.4"
       width="1.4"
       y="-0.2"
       x="-0.2"
       inkscape:label="Warm Inside"
       id="filter7413"
       inkscape:menu="Morphology"
       inkscape:menu-tooltip="Blurred colorized contour, filled inside">
      <feGaussianBlur
         in="SourceAlpha"
         stdDeviation="0.99"
         result="blur1"
         id="feGaussianBlur7389" />
      <feComposite
         in="blur1"
         in2="SourceGraphic"
         operator="xor"
         result="composite1"
         id="feComposite7391" />
      <feColorMatrix
         values="1 0 0 0 0 0 1 0 0 0 0 0 1 0 0 0 0 0 100 -8.85 "
         result="colormatrix1"
         id="feColorMatrix7393" />
      <feGaussianBlur
         stdDeviation="1.62"
         result="blur2"
         id="feGaussianBlur7395" />
      <feComposite
         in="blur2"
         in2="blur2"
         operator="in"
         result="composite2"
         id="feComposite7397" />
      <feColorMatrix
         values="1 0 0 0 0 0 1 0 0 0 0 0 1 0 0 0 0 0 84.53 -13.54 "
         result="colormatrix2"
         id="feColorMatrix7399" />
      <feGaussianBlur
         stdDeviation="1"
         result="blur3"
         id="feGaussianBlur7401" />
      <feColorMatrix
         values="1 0 0 0 0 0 1 0 0 0 0 0 1 0 0 0 0 0 1 0 "
         result="colormatrix3"
         id="feColorMatrix7403" />
      <feFlood
         flood-opacity="1"
         flood-color="rgb(0,0,0)"
         result="flood"
         id="feFlood7405" />
      <feComposite
         in="flood"
         in2="colormatrix3"
         k2="1"
         operator="in"
         result="composite3"
         id="feComposite7407" />
      <feComposite
         in="SourceGraphic"
         in2="colormatrix3"
         operator="out"
         result="composite4"
         id="feComposite7409" />
      <feComposite
         in="composite4"
         in2="composite3"
         k2="1"
         k3="1"
         operator="arithmetic"
         result="fbSourceGraphic"
         id="feComposite7411" />
      <feColorMatrix
         result="fbSourceGraphicAlpha"
         in="fbSourceGraphic"
         values="0 0 0 -1 0 0 0 0 -1 0 0 0 0 -1 0 0 0 0 1 0"
         id="feColorMatrix8313" />
      <feColorMatrix
         id="feColorMatrix8315"
         values="1 0 0 0 0 0 1 0 0 0 0 0 1 0 0 0 0 0 1 0 "
         result="fbSourceGraphic"
         in="fbSourceGraphic" />
      <feGaussianBlur
         id="feGaussianBlur8317"
         stdDeviation="3"
         result="result1" />
      <feOffset
         id="feOffset8319"
         dx="2"
         dy="2"
         result="result6" />
      <feComposite
         in2="result1"
         id="feComposite8321"
         k2="2"
         operator="in"
         result="result2"
         in="result6" />
      <feColorMatrix
         id="feColorMatrix8323"
         values="110"
         result="result3"
         type="hueRotate" />
      <feBlend
         in2="result3"
         id="feBlend8325"
         mode="screen"
         in="result2"
         result="result4" />
      <feConvolveMatrix
         id="feConvolveMatrix8327"
         order="3 3"
         kernelMatrix="-2 0 2 0 4 0 2 0 2"
         divisor="2"
         bias="0"
         targetX="0"
         in="result4"
         result="result5" />
      <feComposite
         in2="result5"
         id="feComposite8329"
         operator="atop"
         in="result2" />
    </filter>
    <filter
       style="color-interpolation-filters:sRGB;"
       height="1.4"
       width="1.4"
       y="-0.2"
       x="-0.2"
       inkscape:label="Outline"
       id="filter8285">
      <feGaussianBlur
         in="SourceAlpha"
         stdDeviation="0.99"
         result="blur1"
         id="feGaussianBlur8261" />
      <feComposite
         in="blur1"
         in2="SourceGraphic"
         operator="out"
         result="composite1"
         id="feComposite8263" />
      <feColorMatrix
         values="1 0 0 0 0 0 1 0 0 0 0 0 1 0 0 0 0 0 50.5 -8.07292 "
         result="colormatrix1"
         id="feColorMatrix8265" />
      <feGaussianBlur
         stdDeviation="1.62"
         result="blur2"
         id="feGaussianBlur8267" />
      <feComposite
         in="blur2"
         in2="blur2"
         operator="over"
         result="composite2"
         id="feComposite8269" />
      <feColorMatrix
         values="1 0 0 0 0 0 1 0 0 0 0 0 1 0 0 0 0 0 20.34 -6.07 "
         result="colormatrix2"
         id="feColorMatrix8271" />
      <feGaussianBlur
         stdDeviation="1"
         result="blur3"
         id="feGaussianBlur8273" />
      <feColorMatrix
         values="1 0 0 0 0 0 1 0 0 0 0 0 1 0 0 0 0 0 1 0 "
         result="colormatrix3"
         id="feColorMatrix8275" />
      <feFlood
         flood-opacity="1"
         flood-color="rgb(50,60,80)"
         result="flood"
         id="feFlood8277" />
      <feComposite
         in="flood"
         in2="colormatrix3"
         k2="1"
         operator="in"
         result="composite3"
         id="feComposite8279" />
      <feComposite
         in="SourceGraphic"
         in2="colormatrix3"
         operator="out"
         result="composite4"
         id="feComposite8281" />
      <feComposite
         in="composite4"
         in2="composite3"
         k2="1"
         k3="1"
         operator="arithmetic"
         result="composite5"
         id="feComposite8283" />
    </filter>
    <filter
       style="color-interpolation-filters:sRGB;"
       inkscape:label="Outline"
       id="filter13871"
       height="1.4"
       width="1.4"
       y="-0.2"
       x="-0.2">
      <feFlood
         flood-opacity="1"
         flood-color="rgb(255,255,255)"
         result="flood"
         id="feFlood13865" />
      <feComposite
         in="flood"
         in2="SourceGraphic"
         operator="in"
         result="composite"
         id="feComposite13867" />
      <feGaussianBlur
         stdDeviation="0.01"
         id="feGaussianBlur13869"
         result="fbSourceGraphic" />
      <feColorMatrix
         result="fbSourceGraphicAlpha"
         in="fbSourceGraphic"
         values="0 0 0 -1 0 0 0 0 -1 0 0 0 0 -1 0 0 0 0 1 0"
         id="feColorMatrix13951" />
      <feGaussianBlur
         id="feGaussianBlur13953"
         in="fbSourceGraphicAlpha"
         stdDeviation="2.5"
         result="blur1" />
      <feComposite
         in2="fbSourceGraphic"
         id="feComposite13955"
         in="blur1"
         operator="out"
         result="composite1" />
      <feColorMatrix
         id="feColorMatrix13957"
         values="1 0 0 0 0 0 1 0 0 0 0 0 1 0 0 0 0 0 100 -0.5 "
         result="colormatrix1" />
      <feGaussianBlur
         id="feGaussianBlur13959"
         stdDeviation="2.5"
         result="blur2" />
      <feComposite
         in2="blur2"
         id="feComposite13961"
         in="blur2"
         operator="over"
         result="composite2" />
      <feColorMatrix
         id="feColorMatrix13963"
         values="1 0 0 0 0 0 1 0 0 0 0 0 1 0 0 0 0 0 100 -0.5 "
         result="colormatrix2" />
      <feGaussianBlur
         id="feGaussianBlur13965"
         stdDeviation="1"
         result="blur3" />
      <feColorMatrix
         id="feColorMatrix13967"
         values="1 0 0 0 0 0 1 0 0 0 0 0 1 0 0 0 0 0 1 0 "
         result="colormatrix3" />
      <feFlood
         id="feFlood13969"
         flood-opacity="1"
         flood-color="rgb(0,0,0)"
         result="flood" />
      <feComposite
         in2="colormatrix3"
         id="feComposite13971"
         in="flood"
         k2="1"
         operator="in"
         result="composite3" />
      <feComposite
         in2="colormatrix3"
         id="feComposite13973"
         in="fbSourceGraphic"
         operator="out"
         result="composite4" />
      <feComposite
         in2="composite3"
         id="feComposite13975"
         in="composite4"
         k2="1"
         k3="1"
         operator="arithmetic"
         result="composite5" />
    </filter>
    <filter
       inkscape:label="Black Hole"
       inkscape:menu="Morphology"
       inkscape:menu-tooltip="Creates a black light inside and outside"
       height="1.5"
       width="1.5"
       y="-0.25"
       x="-0.25"
       style="color-interpolation-filters:sRGB;"
       id="filter14000">
      <feGaussianBlur
         stdDeviation="5"
         in="SourceAlpha"
         result="result1"
         id="feGaussianBlur13988" />
      <feComposite
         operator="arithmetic"
         k2="3.2"
         k1="-1"
         k4="-2"
         result="result3"
         in2="result1"
         id="feComposite13990" />
      <feColorMatrix
         values="1 0 0 0 0 0 1 0 0 0 0 0 1 0 0 0 0 0 10 0 "
         result="result2"
         id="feColorMatrix13992" />
      <feComposite
         result="fbSourceGraphic"
         in="SourceGraphic"
         operator="out"
         in2="result2"
         id="feComposite13994" />
      <feBlend
         mode="multiply"
         in="result1"
         in2="fbSourceGraphic"
         result="result91"
         id="feBlend13996" />
      <feBlend
         mode="screen"
         in="fbSourceGraphic"
         in2="result91"
         id="feBlend13998" />
    </filter>
  </defs>
  <rect
     x="0"
     y="0"
     width="128"
     height="128"
     style="fill:#252525;filter:url(#filter14000)"
     mask="url(#circle)"
     id="rect3781" />
  <g
     mask="url(#circle)"
     id="g3801">
    <g
       transform="translate(16,8)"
       id="g3787">
      <rect
         y="0"
         x="0"
         width="16"
         height="16"
         style="fill:#c04040"
         transform="scale(1.8)"
         mask="url(#failed-mask)"
         id="rect3783" />
      <rect
         x="40"
         y="9"
         width="72"
         height="11"
         style="opacity:0.5;fill:#808080"
         id="rect3785" />
    </g>
    <g
       transform="translate(16,48)"
       id="g3793">
      <rect
         y="0"
         x="0"
         width="16"
         height="16"
         style="fill:#40a040"
         transform="scale(1.8)"
         mask="url(#passed-mask)"
         id="rect3789" />
      <rect
         x="40"
         y="9"
         width="72"
         height="11"
         style="opacity:0.5;fill:#808080"
         id="rect3791" />
    </g>
    <g
       transform="translate(16,88)"
       id="g3799">
      <rect
         y="0"
         x="0"
         width="16"
         height="16"
         style="fill:#4070f0"
         transform="scale(1.8)"
         mask="url(#running-mask)"
         id="rect3795" />
      <rect
         x="40"
         y="9"
         width="72"
         height="11"
         style="opacity:0.5;fill:#808080"
         id="rect3797" />
    </g>
  </g>
  <g
     id="g8398"
     transform="matrix(0.11,0,0,0.11,46.647217,-29.473035)"
     style="filter:url(#filter13871)">
    <path
       id="path8384"
       d="m 101.7,798.9 c 9.8,6.1 16.7,13.6 20.8,22.3 6.1,14 12.9,29.2 20.3,45.7 7.4,16.5 14.9,33.2 22.3,50.1 7.4,16.9 14.6,33.4 21.4,49.4 6.8,16 13,30.7 18.4,44 5.4,13.3 9.7,24.6 12.9,33.9 3.2,9.3 4.8,15.5 4.8,18.4 0,5 -0.7,9.8 -2,14.6 -1.3,4.8 -3.7,9.2 -7.2,13.1 -3.5,3.9 -8.4,7.1 -14.6,9.4 -6.3,2.3 -14.4,3.5 -24.3,3.5 -10.5,0 -19,-1.4 -25.6,-4.2 -6.6,-2.8 -12,-6.3 -16.4,-10.7 -4.4,-4.4 -8,-9 -10.9,-13.8 -2.9,-4.8 -5.9,-9.4 -9,-13.8 -3.1,-4.4 -6.6,-7.9 -10.5,-10.7 -3.9,-2.8 -9.3,-4.2 -16,-4.2 h -28 c -8.2,0 -14.6,1.4 -19.5,4.2 -4.8,2.8 -8.7,6.3 -11.8,10.7 -3.1,4.4 -5.9,9 -8.5,13.8 -2.6,4.8 -6,9.4 -10.1,13.8 -4.1,4.4 -9.4,7.9 -16,10.7 -6.6,2.8 -15.4,4.2 -26.5,4.2 -16.3,0 -28.3,-3.6 -35.9,-10.9 -7.6,-7.3 -11.4,-15.9 -11.4,-25.8 0,-3.8 1.5,-10.4 4.6,-19.9 3.1,-9.5 7.2,-20.8 12.5,-33.9 5.5,-13.2 11.5,-27.7 18.2,-43.8 6.7,-16 13.8,-32.6 21.4,-49.6 7.6,-17.1 15.2,-34.1 22.7,-51.2 7.6,-17.1 14.9,-33.5 21.9,-49.2 4.1,-9 10.9,-16.2 20.3,-21.4 9.5,-5.2 20,-7.9 31.7,-7.9 10.2,0 20.2,3.1 30,9.2 z m 353.7,1.5 c 7.6,6.9 11.4,15.7 11.4,26.5 0,6.1 -1.5,14.1 -4.6,24.1 -3.1,9.9 -7,21.1 -11.8,33.7 -4.8,12.5 -10.4,26.1 -16.6,40.7 -6.3,14.6 -12.6,29.4 -19,44.6 -8.7,20.7 -16.3,39.3 -22.5,55.8 -6.3,16.5 -12.7,30.5 -19.2,42 -6.6,11.5 -13.7,20.4 -21.4,26.7 -7.7,6.3 -17.3,9.4 -28.6,9.4 -11.7,0 -21.4,-2.5 -29.1,-7.7 -7.7,-5.1 -14.7,-12.8 -21,-23.2 -6.3,-10.3 -12.4,-23.4 -18.4,-39.1 -6,-15.7 -13,-34.4 -21.2,-56 -6.1,-16.3 -12.4,-32.3 -18.8,-47.9 -6.4,-15.6 -12.2,-30 -17.5,-43.1 -5.2,-13.1 -9.5,-24.9 -12.9,-35.2 -3.3,-10.3 -5,-18.4 -5,-24.3 0,-13.4 4.5,-23 13.6,-28.9 9,-5.8 20.3,-8.7 33.7,-8.7 12.2,0 21.8,1.5 28.6,4.6 6.8,3.1 12.8,7.1 17.7,12 3.5,3.5 7,8.6 10.5,15.3 3.5,6.7 6.8,14.1 9.8,22.1 3.1,8 6.1,16.1 9.2,24.3 3.1,8.2 5.9,15.7 8.5,22.5 2.6,6.9 5.2,12.4 7.7,16.6 2.5,4.2 4.7,6.3 6.8,6.3 2.3,0 4.7,-2.1 7.2,-6.3 2.5,-4.2 5,-9.7 7.7,-16.4 2.6,-6.7 5.3,-14.1 8.1,-22.1 2.8,-8 5.7,-16 8.7,-23.8 3,-7.8 6.3,-15.1 9.6,-21.6 3.3,-6.6 6.8,-11.6 10.3,-15.1 3.2,-3.2 6.3,-5.9 9.4,-8.1 3.1,-2.2 6.4,-4 10.1,-5.5 3.6,-1.5 7.8,-2.5 12.5,-3.3 4.7,-0.7 10.3,-1.1 17.1,-1.1 11.9,0 21.8,3.4 29.4,10.2 z m 148.5,-1.5 c 9.8,6.1 16.7,13.6 20.8,22.3 6.1,14 12.9,29.2 20.3,45.7 7.4,16.5 14.9,33.2 22.3,50.1 7.4,16.9 14.6,33.4 21.4,49.4 6.8,16 13,30.7 18.4,44 5.4,13.3 9.7,24.6 12.9,33.9 3.2,9.3 4.8,15.5 4.8,18.4 0,5 -0.7,9.8 -2,14.6 -1.3,4.8 -3.7,9.2 -7.2,13.1 -3.5,3.9 -8.4,7.1 -14.6,9.4 -6.3,2.3 -14.4,3.5 -24.3,3.5 -10.5,0 -19,-1.4 -25.6,-4.2 -6.6,-2.8 -12,-6.3 -16.4,-10.7 -4.4,-4.4 -8,-9 -10.9,-13.8 -2.9,-4.8 -5.9,-9.4 -9,-13.8 -3.1,-4.4 -6.6,-7.9 -10.5,-10.7 -3.9,-2.8 -9.3,-4.2 -16,-4.2 h -28 c -8.2,0 -14.6,1.4 -19.5,4.2 -4.8,2.8 -8.7,6.3 -11.8,10.7 -3.1,4.4 -5.9,9 -8.5,13.8 -2.6,4.8 -6,9.4 -10.1,13.8 -4.1,4.4 -9.4,7.9 -16,10.7 -6.6,2.8 -15.4,4.2 -26.5,4.2 -16.3,0 -28.3,-3.6 -35.9,-10.9 -7.6,-7.3 -11.4,-15.9 -11.4,-25.8 0,-3.8 1.5,-10.4 4.6,-19.9 3.1,-9.5 7.2,-20.8 12.5,-33.9 5.2,-13.1 11.2,-27.7 17.9,-43.7 6.7,-16 13.8,-32.6 21.4,-49.6 7.6,-17.1 15.2,-34.1 22.7,-51.2 7.6,-17.1 14.9,-33.5 21.9,-49.2 4.1,-9 10.9,-16.2 20.3,-21.4 9.5,-5.2 20,-7.9 31.7,-7.9 10.5,-0.1 20.5,3 30.3,9.1 z"
       inkscape:connector-curvature="0"
       style="fill:#4b4b77" />
    <path
       id="path8386"
       d="m 70.7,1229.6 c 2.4,0 4.7,-1.3 5.8,-3.5 0,-0.1 9.5,-17.6 18.9,-38.3 4.7,-10.4 9.5,-21.5 13.1,-31.8 1.8,-5.2 3.3,-10.1 4.4,-14.6 1.1,-4.6 1.8,-8.8 1.8,-12.6 0,-14.9 -5.5,-28.2 -14.7,-37.4 -7.7,-7.7 -18.1,-12.4 -29.4,-12.4 -11.3,0 -21.7,4.7 -29.4,12.4 -9.1,9.1 -14.7,22.4 -14.7,37.4 0,3.9 0.7,8.1 1.8,12.6 1.9,8 5.2,17.1 8.9,26.5 11.3,28.1 27.5,58.1 27.5,58.3 1.3,2 3.5,3.4 6,3.4 z m 502.2,0 c 2.4,0 4.7,-1.3 5.8,-3.5 0,-0.1 9.5,-17.6 18.9,-38.3 4.7,-10.4 9.5,-21.5 13.1,-31.8 1.8,-5.2 3.3,-10.1 4.4,-14.6 1.1,-4.6 1.8,-8.8 1.8,-12.6 0,-14.9 -5.5,-28.2 -14.7,-37.4 -7.7,-7.7 -18.1,-12.4 -29.4,-12.4 -11.3,0 -21.7,4.7 -29.4,12.4 -9.1,9.1 -14.7,22.4 -14.7,37.4 0,3.9 0.7,8.1 1.8,12.6 1.9,8 5.2,17.1 8.9,26.5 11.3,28.1 27.5,58.1 27.5,58.3 1.3,2 3.5,3.4 6,3.4 z"
       inkscape:connector-curvature="0"
       style="fill:#e0c7c1">
      <animate
         repeatCount="indefinite"
         dur="2s"
         values="0.5;1;0.5"
         attributeName="opacity" />
    </path>
  </g>
</svg>
